<svg clip-rule="evenodd" fill-rule="evenodd" height="254mm" image-rendering="optimizeQuality" shape-rendering="geometricPrecision" text-rendering="geometricPrecision" viewBox="0 0 25400 25400" width="254mm" xmlns="http://www.w3.org/2000/svg"><g fill="#fff"><path d="m12478.38 10872.6h-68.17c-305.12-635.88-195.02-2250.2 443.19-2250.2 402 0 523.78 1380.08-58.99 2020.71-56.74 62.42-226.51 229.49-316.03 229.49zm3102.53 1841.08c-301.29 0-740.41-44.46-988.71-102.28l656.3-571.09c383.43-383.64 480.76-555.1 748.11-922.51l671.11-1374.53 707.16-2395.37c27.18-92.14 51.06-153.07 81.22-225.63 32.38-77.88 45.46-135.18 81.18-225.66 245.04-620.66 516.73-626.7 907.53-626.7 215.12 0 435.83 208.71 539.72 346.75 762.85 1013.76 437.6 2977.05-96.52 3983.16-31.33 58.96-65.44 96.04-102.65 170.1-168.08 334.43-235.12 375.14-408.72 614.13-220.99 304.31-498.16 517.66-792.97 741.23l-320.5 190.91c-515.27 256.63-1063.45 397.49-1682.26 397.49zm-9478.09-4432.24c0-464.66 69.46-879.42 238.47-1295.76 127.89-315.14 446.62-715.77 818.42-715.77 485.64 0 582.57 85.97 841.49 624.56l167.36 446.34c129.14 383.72 273.18 1057.81 410.25 1464.93l238.47 682.03c306.05 911.15 998.91 1804.11 1907.89 2183.44 222.97 93.02 719.4 258.32 1003.13 258.32l307.13 408.85c64.47 86.29 72.76 61.17 102 170.74-198.69 0-323.56 40.31-503.32 76.27l-790.87 95.55c-97.65 3.55-212.86-8.86-308.74-1.89l-579.06 34.63c-483.03 0-888.53-83.88-1308.81-225.42-147.27-49.61-219.02-95.88-350.42-161l-460.51-289.57c-53.48-40.31-106.83-75.3-155.96-116.78-1004.78-848.9-1576.92-2342.7-1576.92-3639.47zm-1056.93-272.74c0 1109.04 110.78 1964.38 613.7 2966.18 494.37 984.81 1093.61 1694.51 2046.04 2249.81 989.92 577.21 1740.53 545.92 2863.5 545.92 399.7 0 1387.49-123.34 1732.11-211.25 90.56-23.11 239.07-70.79 320.62-88.51 145.93-31.77 170.46-37.57 295.49-79.57 595.13-199.89 205.61-19.09 1279.86 228.81 1260 290.78 2433.46 204.08 3588.37-372.37 161.47-80.57 254.05-133.65 387.02-226.67 69.34-48.52 96.2-77.19 176.66-130.19 922.87-607.57 1540.55-1777.33 1881.3-2789.56 59.04-175.33 79.41-315.02 123.35-490.35 267.62-1067.76 190.91-2595.75-415.78-3504.7-156.68-234.68-379.77-486.8-629.31-632.13-1078.6-628.27-2186.18-258.28-2739.51 965.92-330.93 732.12-453.67 1558.19-694.4 2271.79-157.97 468.33-277.85 870.33-508.83 1332.21-47.68 95.35-82.03 132.2-137.15 237.9-138.45 265.57-203.56 338.58-370.35 550.15-405.47 514.27-194.18 243.55-633.15 662.46-115.81 110.58-769.09 571.33-928.79 571.33-35.16 0-108-96.44-145.37-127.37-111.99-92.66-85.53 11.4-127.37-145.37 171.22-45.7 276.97-167.72 375.06-238.63 201.87-146.01 433.41-526.67 552.08-743.48 185.64-339.26 285.91-820.71 299-1201.21 4.06-118.39 24.2-121.77 29.03-176.54l-63.78-570.36c-45.31-218.22-120.97-452.9-229.29-623.04-622.07-976.99-1852.24-856.19-2394.21 41.4-391.01 647.56-408.97 1140.24-408.97 1875.35 0 248.58 63.63 374.5 68.18 579.58-587.56-310.87-846.45-430.43-1215.91-1170.64l-181.78-397.82c-141.42-310.71-478.83-1463.96-566.09-1820.5-44.82-183.02-95.16-314.86-145.73-467.96-292.11-883.77-796.8-1700.38-1913.56-1700.38-407.93 0-861.31 187.93-1131.71 402.52-320.94 254.7-497.48 503.36-686.74 881.6-212.54 424.76-363.59 1073.24-363.59 1545.67z"/><path d="m715.97 17930.07h545.48c12.53-150.36 422.58-1388.42 443.24-1636.51 96.84 70.95 45.14 14.49 149.44 361.97 47.59 158.74 72.84 290.09 119.03 426.48l242.94 848.06h545.52l750.04-2420.66h-579.59l-368.49 1438.47c-16.07 61.37-3.47 45.5-26.42 109.93-48.2 135.02-12.89 37.13-48.32 88.11l-337.05-1197.18c-36.44-110.26-96.12-318.89-106.15-439.33h-579.62c-63.67 273.42-161.84 562.11-232.19 824.7-51.02 190.31-211.01 688.91-211.01 845.88-22.07-25.37-23.76-9.38-45.54-56.74l-195.1-759.55c-28.03-139.89-84.29-276.76-121.17-424.35-45.22-180.96-45.46-283.93-115.53-429.94h-545.48c0 283.33 614.66 1985.76 715.97 2420.66z"/><path d="m7637.05 15952.6c367.58 0 681.87 314.3 681.87 681.91 0 278.46 16.23 407.68-178.83 639.42-339.83 403.82-1286.66 272.78-1230.69-586.95 30.36-466.67 282.44-734.38 727.65-734.38zm-1295.6 750.08c0 515.52 307.41 1011.11 729.31 1179.95 1031.76 413 1793.68-383.43 1793.68-975.38 0-551.6 12.85-723.39-400.15-1134.08-710.18-706.23-2122.84-209.84-2122.84 929.51z"/><path d="m4125.35 16770.86c0-1123.45 1431.95-1055 1431.95-34.07 0 1016.02-1431.95 985.49-1431.95 34.07zm-545.47-68.18c0 537.91 253.73 988.11 749.76 1193.56 1365.1 565.42 2330.34-1120.15 1424.62-2072.42-208.15-218.82-514.15-345.02-886.15-376.35-170.46-14.33-571.78 87.91-715.74 191.2-337.37 242.05-572.49 549.79-572.49 1064.01z"/><path d="m23422.53 16736.79c0-1041.22 1431.95-1057.33 1431.95 0 0 1001.68-1431.95 1018.51-1431.95 0zm-545.48-34.11c0 418.15 113.04 674.1 383.32 946.32 456.12 459.38 1283.4 475.77 1756.11-.17 320.82-323.03 383.52-526.1 383.52-1014.32 0-518.78-339.02-909.59-760.51-1080.61-861.79-349.65-1762.44 239.12-1762.44 1148.78z"/><path d="m10228.17 17452.77h-443.19v-1466.06c408.36 0 1090.99-41.64 1090.99 715.97 0 405.75-220.02 750.09-647.8 750.09zm-954.6 477.3c850.19 0 1683.99 156.16 2046.61-680.9 128.74-297.22 122.41-708.45 19.61-1010.34-149.56-439.29-637.53-729.42-1111.62-729.42h-954.6z"/><path d="m19876.76 16498.12c-419.63 97.77-354.12 68.18-818.25 68.18v-579.59c266.21 0 623.92-40.43 785.76 66.56 197.11 130.35 54 361.37 32.49 444.85zm-1329.66 1431.95h511.41v-886.43h477.34l421.13 880.47 601.65 5.96c-39.95-75.5-66-144.44-115.69-225.22-59.56-96.81-81.5-133.61-134.34-240.73-54.32-110.13-82.71-140.09-136.79-238.23-50.17-91.04-80.58-167.35-124.55-250.47 744.41-498.48 426.2-1466.01-375.06-1466.01h-1125.1z"/><path d="m16331 17930.07h1772.9c0-629.32 220.03-477.3-1261.49-477.3 0-668.74-217.29-511.41 1193.28-511.41v-477.35h-1193.28v-477.3h1261.49v-477.3h-1772.9z"/><path d="m20797.3 16191.27c0 405.23 173.04 564.57 489.91 669.27 84.36 27.86 122.46 40.59 204.52 68.25 96.25 32.5 601.13 106.11 601.13 319.41 0 301.37-751.33 477.55-886.43-102.28-430.35 0-686.7-117.34-353.23 489.59 286.18 520.91 1751.07 568.71 1751.07-455.52 0-863.24-1295.56-555.83-1295.56-1022.82 0-223.57 451.41-312.61 656.7-145.29 75.79 61.77 103.29 177.82 127.45 281.68 452.06 0 611.52 97 420.65-352.47-62.01-146.06-105.22-168.29-207.06-270.25-444.33-444.88-1509.15-195.9-1509.15 520.43z"/><path d="m14660.41 17930.07h511.42l920.49-2420.66h-579.58c-12.65 151.77-92.58 293.43-140.66 438.92l-298.27 860.95c-61.77 187.04-94.47 345.98-174.76 404.82-12.61-151.54-89.16-283.09-132.17-413.36l-447.42-1291.33h-579.58c27.82 119.47 63.66 192.4 106.83 302.25 37.25 94.79 66.28 183.39 111.14 297.99z"/><path d="m12239.71 17179.99v750.08h511.41c0-917.8-75.38-654.24 193.69-1170.08l228.89-418.92c170.38-278.09 314.13-548.7 463.89-831.66h-579.62c-164.74 246.04-411.87 770.29-545.48 1022.82-98.01-71.8-492.04-857.36-579.63-1022.82h-579.58c37.13 139.04 459.26 812.9 557.07 1011.22l234.12 413.68c50.02 77.8 95.24 129.02 95.24 245.68z"/><path d="m15001.33 20214.39h170.5v-511.42c0-329.15 511.37-354.6 511.37 0v511.42h136.39c0-329.93-59.2-680.75 232.91-757.09 396.76-103.7 312.6 419.67 312.6 757.09h136.35c0-566.7 109.37-920.54-375.02-920.54-211.69 0-271.73 153.82-340.95 204.56-35.96-134.7-141.47-204.56-306.85-204.56-165.46 0-211.21 72.32-306.8 136.35-12.29-147.23-19.29-133.01-170.5-136.35z"/><path d="m10296.35 19805.26c0-522.41 613.69-461.6 613.69-34.11 0 437.8-613.69 429.1-613.69 34.11zm613.69-375.06c-842.98-564.49-1030.27 784.19-409.13 784.19 333.79 0 223.49-12.09 409.13-136.39v136.39h170.5v-1261.5h-170.5z"/><path d="m4364.02 19702.97h-340.95c0-593.72-47.76-545.51 204.57-545.51 664.83 0 486.52 545.51 136.38 545.51zm-477.3 511.42h136.35v-375.07h409.13c30.72 115.09 146.5 265.29 204.56 375.07h170.5c-24.4-91.33-56.05-124.8-111.66-195.23-73.01-92.41-75.35-116.25-127.01-213.9 413.32-218.7 296.7-784.19-204.57-784.19h-477.3z"/><path d="m20660.91 19805.26c0-471.63 613.7-523.29 613.7 0 0 170.65-147.1 309.26-302.54 300.04-148.35-8.78-311.16-138.04-311.16-300.04zm613.7-375.06c-496.19-332.26-750.05 47.11-750.05 238.67 0 422.94 62.14 545.52 511.41 545.52 125.16 0 164.78-52.84 238.64-102.29v102.29h170.49v-1261.5h-170.49z"/><path d="m8455.31 19430.2c174.81 0 306.85 166.47 306.85 340.95 0 303.02-344.26 428.01-539.6 232.75-222.49-222.4-24.57-573.7 232.75-573.7zm306.85 34.1-150.49-122.29c-667.21-339.39-892.99 872.38-258.64 872.38 333.74 0 223.45-12.09 409.13-136.39v136.39h136.35v-1261.5h-136.35z"/><path d="m19672.2 20043.89v-170.46c182.46-96.56 204.4-68.17 477.34-68.17-6.92 310.75-261.18 342.36-477.34 238.63zm-102.28-647.76 38.29 135.02c127.13-33.71 541.33-293.56 541.33 171.82-201.06 0-647.8-66.24-647.8 238.64 0 308.29 374.58 353.43 647.8 170.49v102.29h170.46c0-469.01 87.1-920.54-375.02-920.54-188.3 0-228.04 68.01-375.06 102.28z"/><path d="m17149.25 19430.2c194.3 0 291.47 87.66 306.85 272.77h-579.59c14.94-64.18 39.71-143.15 84.65-188.09 29.6-29.64 139.93-84.68 188.09-84.68zm-443.23 340.95c0 525.46 742.03 558.32 818.25 272.74-137.51-114.85-159.9 109.65-416.73 44.17-152.86-38.98-197.44-104.49-231.03-248.74h715.98c0-847.81-886.47-597.66-886.47-68.17z"/><path d="m21990.58 20112.1c-149.48-79.12-170.46-58.47-170.46-238.67 182.46-96.56 204.41-68.17 477.31-68.17 0 225.26-11.24 237.94-306.85 306.84zm-272.74-647.8 39.22 66.49c86.54-19.66 225.02-100.59 301.74-100.59 128.37 0 64.47 22.42 204.56 34.1 23.36 100.31 34.07 104.06 34.07 238.67-410.22 0-613.69-61.65-613.69 272.74 0 80.42 3.86 102.41 49.61 154.96 129.22 148.55 423.22 90.04 564.08 15.5 39.54 97.89-22.71 68.22 170.5 68.22 0-506.22 100.95-920.54-375.07-920.54-182.61 0-301.29 60.32-375.02 170.45z"/><path d="m5489.13 19430.2c212.94 0 252.08 229.73 272.74 272.77h-579.59c15.38-185.11 112.51-272.77 306.85-272.77zm-477.3 306.84c0 597.83 746.45 575.6 818.21 306.85-137.64-114.97-192.84 112.31-423.18 50.94-132.08-35.2-212.78-113.76-224.58-255.51h715.98c0-821.23-886.43-606.68-886.43-102.28z"/><path d="m11728.3 19430.2c256.71 0 272.82 126.72 306.85 272.77h-579.59c14.94-64.18 39.71-143.15 84.64-188.09 29.64-29.64 139.94-84.68 188.1-84.68zm-443.2 340.95c0 525.46 741.99 558.32 818.26 272.74-144.32-120.53-269.88 207.5-538.63-6.85-70.59-56.29-87.18-103.29-109.17-197.72h715.98c0-838.47-886.44-600.88-886.44-68.17z"/><path d="m6205.1 20043.89v-68.18-34.1c0-79.82 56.58-136.35 136.35-136.35h340.96c-6.93 310.75-261.14 342.36-477.31 238.63zm-102.28-647.76c8.98 105.54-.44 64.43 34.07 136.35 59.96-15.99 534.77-311.96 545.52 170.49-201.02 0-647.8-66.24-647.8 238.64 0 308.29 374.57 353.43 647.8 170.49v102.29h136.39c0-656.18 114.84-920.54-409.13-920.54-136.51 0-169.45 70.26-306.85 102.28z"/><path d="m17797.05 20214.39h170.46c0-696.89-62.58-750.09 409.13-750.09 163.53 188.7 102.28 181.25 102.28 750.09h170.46c0-539.28 86.86-920.54-409.13-920.54-154.91 0-177.83 72.8-272.74 136.35-12.24-147.23-19.25-133.01-170.46-136.35z"/><path d="m9478.13 20112.1c-134.58 0-178.19-91.25-204.56-204.56 5.51-5.84 13.41-23.76 15.98-18.12 2.58 5.68 12.73-14.46 16.47-17.6 120.17-101.56 212.98-66.56 478.96-66.56-2.94 131.11.4 154.1-86.74 220.1-46.11 34.88-161.11 86.74-220.11 86.74zm68.18-681.9c181.41 0 234.6 91.85 238.67 272.77-269.28 0-647.8-69.86-647.8 238.64 0 308.29 374.58 353.43 647.8 170.49v102.29h136.35c0-553.05 98.25-920.54-375.02-920.54-102.61 0-222.49 25.61-291.14 87.06-63.35 56.65-53.68-42.21-45.59 82.22 8.58 132.21 177.59-32.93 336.73-32.93z"/><path d="m13160.25 20112.1c-231.79 0-306.28-306.84 0-306.84h306.85c-3.87 174.08-127.78 306.84-306.85 306.84zm-272.74-681.9c0 191.67 161.2 0 340.95 0 137.72 0 238.64 74.25 238.64 204.56 0 113.03-359.28 68.21-477.31 68.21-382.67 116.3-89.72 788.83 477.31 409.13v102.29h136.39c0-544.72 100.71-920.54-375.03-920.54-105.98 0-340.95 56.73-340.95 136.35z"/><path d="m13876.22 19907.54c0 348.85 370.56 390.2 647.8 204.56v102.29h170.46v-920.54c-224.94 4.99-166.91 14.57-169.17 444.48-1.81 337.33-160.59 339.67-376.31 339.67-189.62-283.13-136.39-144.93-136.39-784.15h-136.39z"/><path d="m18956.22 19327.91h-136.34v136.39h136.34c0 449-52.99 518.18 102.29 750.09 348.44 0 336.52 28.55 340.95-170.5-333.79 77.76-272.74 88.27-272.74-579.59h272.74v-136.39h-272.74c0-240.56 16.07-234.48-170.5-238.63z"/><path d="m7125.64 20214.39h136.35v-1261.5h-136.35z"/><path d="m7602.95 20214.39h136.39v-920.54h-136.39z"/><path d="m7568.84 19055.17c0 145.29 170.5 139.45 170.5 0 0-145.29-170.5-139.45-170.5 0z"/></g></svg>